<mxfile host="app.diagrams.net" modified="2024-07-01T07:36:32.960Z" agent="Mozilla/5.0 (Windows NT 10.0; Win64; x64) AppleWebKit/537.36 (KHTML, like Gecko) Chrome/126.0.0.0 Safari/537.36 Edg/126.0.0.0" etag="Zm1duw6RUsXhD4NOy2qp" version="24.6.4" type="device">
  <diagram id="C5RBs43oDa-KdzZeNtuy" name="Page-1">
    <mxGraphModel dx="1240" dy="653" grid="1" gridSize="10" guides="1" tooltips="1" connect="1" arrows="1" fold="1" page="1" pageScale="1" pageWidth="827" pageHeight="1169" math="0" shadow="0">
      <root>
        <mxCell id="WIyWlLk6GJQsqaUBKTNV-0" />
        <mxCell id="WIyWlLk6GJQsqaUBKTNV-1" parent="WIyWlLk6GJQsqaUBKTNV-0" />
        <mxCell id="jVXMtbX3NMEcmxjMULGq-5" style="edgeStyle=orthogonalEdgeStyle;rounded=0;orthogonalLoop=1;jettySize=auto;html=1;entryX=0;entryY=0.5;entryDx=0;entryDy=0;exitX=0.5;exitY=1;exitDx=0;exitDy=0;endArrow=block;endFill=0;" edge="1" parent="WIyWlLk6GJQsqaUBKTNV-1" source="jVXMtbX3NMEcmxjMULGq-1" target="jVXMtbX3NMEcmxjMULGq-4">
          <mxGeometry relative="1" as="geometry" />
        </mxCell>
        <mxCell id="jVXMtbX3NMEcmxjMULGq-1" value="DllMain" style="rounded=1;whiteSpace=wrap;html=1;" vertex="1" parent="WIyWlLk6GJQsqaUBKTNV-1">
          <mxGeometry x="64" y="50" width="120" height="35" as="geometry" />
        </mxCell>
        <mxCell id="jVXMtbX3NMEcmxjMULGq-19" style="edgeStyle=orthogonalEdgeStyle;rounded=0;orthogonalLoop=1;jettySize=auto;html=1;entryX=0.5;entryY=0;entryDx=0;entryDy=0;" edge="1" parent="WIyWlLk6GJQsqaUBKTNV-1" source="jVXMtbX3NMEcmxjMULGq-4" target="jVXMtbX3NMEcmxjMULGq-8">
          <mxGeometry relative="1" as="geometry" />
        </mxCell>
        <mxCell id="jVXMtbX3NMEcmxjMULGq-41" style="edgeStyle=orthogonalEdgeStyle;rounded=0;orthogonalLoop=1;jettySize=auto;html=1;" edge="1" parent="WIyWlLk6GJQsqaUBKTNV-1" source="jVXMtbX3NMEcmxjMULGq-4" target="jVXMtbX3NMEcmxjMULGq-40">
          <mxGeometry relative="1" as="geometry" />
        </mxCell>
        <mxCell id="jVXMtbX3NMEcmxjMULGq-4" value="Luna First Setup" style="rounded=1;whiteSpace=wrap;html=1;" vertex="1" parent="WIyWlLk6GJQsqaUBKTNV-1">
          <mxGeometry x="200" y="102.5" width="120" height="35" as="geometry" />
        </mxCell>
        <mxCell id="jVXMtbX3NMEcmxjMULGq-20" style="edgeStyle=orthogonalEdgeStyle;rounded=0;orthogonalLoop=1;jettySize=auto;html=1;entryX=0.5;entryY=0;entryDx=0;entryDy=0;" edge="1" parent="WIyWlLk6GJQsqaUBKTNV-1" source="jVXMtbX3NMEcmxjMULGq-8" target="jVXMtbX3NMEcmxjMULGq-9">
          <mxGeometry relative="1" as="geometry" />
        </mxCell>
        <mxCell id="jVXMtbX3NMEcmxjMULGq-34" style="edgeStyle=orthogonalEdgeStyle;rounded=0;orthogonalLoop=1;jettySize=auto;html=1;" edge="1" parent="WIyWlLk6GJQsqaUBKTNV-1" source="jVXMtbX3NMEcmxjMULGq-8" target="jVXMtbX3NMEcmxjMULGq-33">
          <mxGeometry relative="1" as="geometry" />
        </mxCell>
        <mxCell id="jVXMtbX3NMEcmxjMULGq-8" value="PvZ Setup" style="rounded=1;whiteSpace=wrap;html=1;" vertex="1" parent="WIyWlLk6GJQsqaUBKTNV-1">
          <mxGeometry x="200" y="170" width="120" height="35" as="geometry" />
        </mxCell>
        <mxCell id="jVXMtbX3NMEcmxjMULGq-11" value="" style="edgeStyle=orthogonalEdgeStyle;rounded=0;orthogonalLoop=1;jettySize=auto;html=1;" edge="1" parent="WIyWlLk6GJQsqaUBKTNV-1" source="jVXMtbX3NMEcmxjMULGq-9" target="jVXMtbX3NMEcmxjMULGq-10">
          <mxGeometry relative="1" as="geometry" />
        </mxCell>
        <mxCell id="jVXMtbX3NMEcmxjMULGq-24" style="edgeStyle=orthogonalEdgeStyle;rounded=0;orthogonalLoop=1;jettySize=auto;html=1;" edge="1" parent="WIyWlLk6GJQsqaUBKTNV-1" source="jVXMtbX3NMEcmxjMULGq-9" target="jVXMtbX3NMEcmxjMULGq-22">
          <mxGeometry relative="1" as="geometry" />
        </mxCell>
        <mxCell id="jVXMtbX3NMEcmxjMULGq-9" value="Luna Services Setup" style="rounded=1;whiteSpace=wrap;html=1;" vertex="1" parent="WIyWlLk6GJQsqaUBKTNV-1">
          <mxGeometry x="200" y="240" width="120" height="35" as="geometry" />
        </mxCell>
        <mxCell id="jVXMtbX3NMEcmxjMULGq-17" style="edgeStyle=orthogonalEdgeStyle;rounded=0;orthogonalLoop=1;jettySize=auto;html=1;" edge="1" parent="WIyWlLk6GJQsqaUBKTNV-1" source="jVXMtbX3NMEcmxjMULGq-10" target="jVXMtbX3NMEcmxjMULGq-12">
          <mxGeometry relative="1" as="geometry" />
        </mxCell>
        <mxCell id="jVXMtbX3NMEcmxjMULGq-10" value="Mods Collection" style="rounded=1;whiteSpace=wrap;html=1;" vertex="1" parent="WIyWlLk6GJQsqaUBKTNV-1">
          <mxGeometry x="350" y="240" width="120" height="35" as="geometry" />
        </mxCell>
        <mxCell id="jVXMtbX3NMEcmxjMULGq-18" style="edgeStyle=orthogonalEdgeStyle;rounded=0;orthogonalLoop=1;jettySize=auto;html=1;" edge="1" parent="WIyWlLk6GJQsqaUBKTNV-1" source="jVXMtbX3NMEcmxjMULGq-12" target="jVXMtbX3NMEcmxjMULGq-14">
          <mxGeometry relative="1" as="geometry" />
        </mxCell>
        <mxCell id="jVXMtbX3NMEcmxjMULGq-12" value="Lua Setup" style="rounded=1;whiteSpace=wrap;html=1;" vertex="1" parent="WIyWlLk6GJQsqaUBKTNV-1">
          <mxGeometry x="350" y="310" width="120" height="35" as="geometry" />
        </mxCell>
        <mxCell id="jVXMtbX3NMEcmxjMULGq-14" value="Misc Services (discord rpc)" style="rounded=1;whiteSpace=wrap;html=1;" vertex="1" parent="WIyWlLk6GJQsqaUBKTNV-1">
          <mxGeometry x="350" y="380" width="120" height="35" as="geometry" />
        </mxCell>
        <mxCell id="jVXMtbX3NMEcmxjMULGq-26" style="edgeStyle=orthogonalEdgeStyle;rounded=0;orthogonalLoop=1;jettySize=auto;html=1;" edge="1" parent="WIyWlLk6GJQsqaUBKTNV-1" source="jVXMtbX3NMEcmxjMULGq-22" target="jVXMtbX3NMEcmxjMULGq-25">
          <mxGeometry relative="1" as="geometry" />
        </mxCell>
        <mxCell id="jVXMtbX3NMEcmxjMULGq-27" value="Yes" style="edgeLabel;html=1;align=center;verticalAlign=middle;resizable=0;points=[];" vertex="1" connectable="0" parent="jVXMtbX3NMEcmxjMULGq-26">
          <mxGeometry x="-0.1133" relative="1" as="geometry">
            <mxPoint as="offset" />
          </mxGeometry>
        </mxCell>
        <mxCell id="jVXMtbX3NMEcmxjMULGq-29" style="edgeStyle=orthogonalEdgeStyle;rounded=0;orthogonalLoop=1;jettySize=auto;html=1;" edge="1" parent="WIyWlLk6GJQsqaUBKTNV-1" source="jVXMtbX3NMEcmxjMULGq-22" target="jVXMtbX3NMEcmxjMULGq-28">
          <mxGeometry relative="1" as="geometry" />
        </mxCell>
        <mxCell id="jVXMtbX3NMEcmxjMULGq-22" value="Any Mod Loaded?" style="rhombus;whiteSpace=wrap;html=1;shadow=0;fontFamily=Helvetica;fontSize=12;align=center;strokeWidth=1;spacing=6;spacingTop=-4;" vertex="1" parent="WIyWlLk6GJQsqaUBKTNV-1">
          <mxGeometry x="210" y="310" width="100" height="80" as="geometry" />
        </mxCell>
        <mxCell id="jVXMtbX3NMEcmxjMULGq-25" value="Execute Mods" style="rounded=1;whiteSpace=wrap;html=1;fontSize=12;glass=0;strokeWidth=1;shadow=0;" vertex="1" parent="WIyWlLk6GJQsqaUBKTNV-1">
          <mxGeometry x="40" y="330" width="120" height="40" as="geometry" />
        </mxCell>
        <mxCell id="jVXMtbX3NMEcmxjMULGq-28" value="New thread to handle core loop logics" style="rounded=1;whiteSpace=wrap;html=1;" vertex="1" parent="WIyWlLk6GJQsqaUBKTNV-1">
          <mxGeometry x="200" y="430" width="120" height="35" as="geometry" />
        </mxCell>
        <mxCell id="jVXMtbX3NMEcmxjMULGq-36" style="edgeStyle=orthogonalEdgeStyle;rounded=0;orthogonalLoop=1;jettySize=auto;html=1;" edge="1" parent="WIyWlLk6GJQsqaUBKTNV-1" source="jVXMtbX3NMEcmxjMULGq-33" target="jVXMtbX3NMEcmxjMULGq-35">
          <mxGeometry relative="1" as="geometry" />
        </mxCell>
        <mxCell id="jVXMtbX3NMEcmxjMULGq-33" value="Resolve PvZ API" style="rounded=1;whiteSpace=wrap;html=1;" vertex="1" parent="WIyWlLk6GJQsqaUBKTNV-1">
          <mxGeometry x="501" y="170" width="120" height="35" as="geometry" />
        </mxCell>
        <mxCell id="jVXMtbX3NMEcmxjMULGq-38" style="edgeStyle=orthogonalEdgeStyle;rounded=0;orthogonalLoop=1;jettySize=auto;html=1;" edge="1" parent="WIyWlLk6GJQsqaUBKTNV-1" source="jVXMtbX3NMEcmxjMULGq-35" target="jVXMtbX3NMEcmxjMULGq-37">
          <mxGeometry relative="1" as="geometry" />
        </mxCell>
        <mxCell id="jVXMtbX3NMEcmxjMULGq-35" value="PvZ Hooks" style="rounded=1;whiteSpace=wrap;html=1;" vertex="1" parent="WIyWlLk6GJQsqaUBKTNV-1">
          <mxGeometry x="501" y="230" width="120" height="35" as="geometry" />
        </mxCell>
        <mxCell id="jVXMtbX3NMEcmxjMULGq-37" value="PvZ Patches" style="rounded=1;whiteSpace=wrap;html=1;" vertex="1" parent="WIyWlLk6GJQsqaUBKTNV-1">
          <mxGeometry x="501" y="290" width="120" height="35" as="geometry" />
        </mxCell>
        <mxCell id="jVXMtbX3NMEcmxjMULGq-40" value="Global Space Setup" style="rounded=1;whiteSpace=wrap;html=1;" vertex="1" parent="WIyWlLk6GJQsqaUBKTNV-1">
          <mxGeometry x="650" y="102.5" width="120" height="35" as="geometry" />
        </mxCell>
      </root>
    </mxGraphModel>
  </diagram>
</mxfile>
